<svg xmlns="http://www.w3.org/2000/svg" xmlns:xlink="http://www.w3.org/1999/xlink" preserveAspectRatio="xMidYMid meet" width="300" height="300" viewBox="0 0 300 300" style="width:100%;height:100%"><defs><animate repeatCount="1" dur="0.4170838s" begin="0s" xlink:href="#_R_G_L_0_C_0_P_0" fill="freeze" attributeName="d" attributeType="XML" from="M262.31 130.5 C262.31,130.5 36,130.5 36,130.5 C36,130.5 36,145.5 36,145.5 C36,145.5 262.31,145.5 262.31,145.5 C262.31,145.5 262.31,130.5 262.31,130.5z " to="M262.31 130.5 C262.31,130.5 36,130.5 36,130.5 C36,130.5 36,147.73 36,147.73 C36,147.73 262.31,147.73 262.31,147.73 C262.31,147.73 262.31,130.5 262.31,130.5z " keyTimes="0;0.2;0.45;0.7;1" values="M262.31 130.5 C262.31,130.5 36,130.5 36,130.5 C36,130.5 36,145.5 36,145.5 C36,145.5 262.31,145.5 262.31,145.5 C262.31,145.5 262.31,130.5 262.31,130.5z ;M262.31 130.5 C262.31,130.5 36,130.5 36,130.5 C36,130.5 36,145.5 36,145.5 C36,145.5 262.31,145.5 262.31,145.5 C262.31,145.5 262.31,130.5 262.31,130.5z ;M262.31 130.5 C262.31,130.5 36,130.5 36,130.5 C36,130.5 36,207.5 36,207.5 C36,207.5 262.31,207.5 262.31,207.5 C262.31,207.5 262.31,130.5 262.31,130.5z ;M262.31 130.5 C262.31,130.5 36,130.5 36,130.5 C36,130.5 36,147.73 36,147.73 C36,147.73 262.31,147.73 262.31,147.73 C262.31,147.73 262.31,130.5 262.31,130.5z ;M262.31 130.5 C262.31,130.5 36,130.5 36,130.5 C36,130.5 36,147.73 36,147.73 C36,147.73 262.31,147.73 262.31,147.73 C262.31,147.73 262.31,130.5 262.31,130.5z " keySplines="0.66 0 0.34 1;0.66 0 0.34 1;0.66 0 0.34 1;0 0 0 0" calcMode="spline"/><clipPath id="_R_G_L_0_C_0"><path id="_R_G_L_0_C_0_P_0" fill-rule="nonzero"/></clipPath><animate attributeType="XML" attributeName="opacity" dur="0s" from="0" to="1" xlink:href="#time_group"/></defs><g id="_R_G"><g id="_R_G_L_5_G" transform=" translate(150.723, 224.514) scale(1.38, 1.38) translate(0, 0)"><path id="_R_G_L_5_G_D_0_P_0" fill="#1c004f" fill-opacity="1" fill-rule="nonzero" d=" M-13.22 -5.75 C-13.22,-5.75 -16.62,-6.65 -15.72,-2.85 C-11.92,2.95 -6.22,6.45 0.48,6.45 C7.28,6.45 13.88,1.65 15.88,-4.05 C15.88,-6.05 14.98,-7.05 12.98,-6.05 C12.08,-5.05 8.18,-1.25 0.48,-1.25 C-7.22,-1.25 -6.52,-1.95 -13.22,-5.75z "/></g><g id="_R_G_L_4_G" transform=" translate(151.37, 149.714) scale(1.38, 1.38) translate(0, 0)"><path id="_R_G_L_4_G_D_0_P_0" fill="#1c004f" fill-opacity="1" fill-rule="nonzero" d=" M-86.39 25.15 C-86.39,25.15 -86.99,-28.55 -81.59,-43.05 C-81.59,-43.05 -81.69,-43.05 -81.69,-43.05 C-79.79,-50.65 -74.99,-51.65 -73.99,-51.65 C-73.99,-54.55 -74.99,-61.25 -66.19,-64.15 C-60.49,-66.05 -57.59,-68.95 -56.59,-71.85 C-52.79,-74.65 -50.89,-76.65 -44.19,-75.65 C17.51,-105.85 61.41,-58.45 61.41,-58.45 C70.11,-58.45 74.81,-52.65 77.81,-45.95 C77.81,-45.95 83.71,-33.35 84.41,-26.65 C86.61,-8.55 86.41,27.95 86.41,27.95 C86.41,69.15 50.91,79.85 39.41,82.65 C27.81,86.55 -22.09,86.55 -37.39,83.65 C-51.39,81.55 -86.39,70.15 -86.39,25.15z  M36.51 70.25 C36.51,70.25 73.01,64.45 73.01,27.05 C73.01,27.05 74.51,-5.35 71.01,-10.45 C71.01,-10.45 71.01,-14.25 67.21,-16.25 C63.41,-18.05 58.31,-37.35 55.71,-39.25 C49.31,-43.55 -5.09,-39.85 -9.69,-37.85 C-14.29,-36.05 -21.49,-21.85 -22.09,-22.85 C-22.59,-23.95 -24.89,-27.65 -26.89,-34.45 C-37.49,-35.35 -47.99,-15.25 -47.99,-15.25 C-49.89,-15.25 -53.79,-24.85 -53.79,-38.25 C-53.79,-38.25 -65.39,-38.45 -69.09,-21.85 C-72.59,-6.55 -72.99,25.15 -72.99,25.15 C-72.99,59.35 -48.99,68.15 -34.49,71.25 C-21.09,73.15 30.71,72.15 36.51,70.25z "/></g><g id="_R_G_L_3_G" transform=" translate(151.488, 175.752) scale(1.38, 1.38) translate(0, 0)"><path id="_R_G_L_3_G_D_0_P_0" fill="#7126ff" fill-opacity="1" fill-rule="nonzero" d=" M63.32 -31.22 C50.82,-32.12 40.52,-28.52 31.62,-22.52 C11.42,-8.92 -5.28,-2.22 -31.78,-22.52 C-40.28,-29.12 -50.98,-32.12 -63.48,-32.12 C-102.16,-31.7 -92.74,31.7 -60.58,31.18 C-40.28,36.78 -20.28,16.78 -20.28,16.78 C-3.38,-1.92 10.92,7.28 18.12,16.78 C23.76,21.99 30.43,25.97 37.7,28.45 C44.97,30.93 52.67,31.86 60.32,31.18 C91.42,28.58 101.92,-28.92 63.32,-31.22z "/></g><g id="_R_G_L_2_G" transform=" translate(151.38, 176.416) scale(1.38, 1.38) translate(0, 0)"><path id="_R_G_L_2_G_D_0_P_0" fill="#ffffff" fill-opacity="1" fill-rule="nonzero" d=" M61.58 13.58 C57.98,17.18 53.09,19.2 48,19.2 C42.91,19.2 38.03,17.18 34.42,13.58 C30.82,9.98 28.8,5.09 28.8,0 C28.8,-5.09 30.82,-9.98 34.42,-13.58 C38.03,-17.18 42.91,-19.2 48,-19.2 C53.09,-19.2 57.98,-17.18 61.58,-13.58 C65.18,-9.98 67.2,-5.09 67.2,0 C67.2,5.09 65.18,9.98 61.58,13.58z  M-34.42 13.58 C-38.02,17.18 -42.91,19.2 -48,19.2 C-53.09,19.2 -57.97,17.18 -61.58,13.58 C-65.18,9.98 -67.2,5.09 -67.2,0 C-67.2,-5.09 -65.18,-9.98 -61.58,-13.58 C-57.97,-17.18 -53.09,-19.2 -48,-19.2 C-42.91,-19.2 -38.02,-17.18 -34.42,-13.58 C-30.82,-9.98 -28.8,-5.09 -28.8,0 C-28.8,5.09 -30.82,9.98 -34.42,13.58z "/></g><g id="_R_G_L_1_G" transform=" translate(151.047, 175.802) scale(1.38, 1.38) translate(0, 0)"><path id="_R_G_L_1_G_D_0_P_0" fill="#1c004f" fill-opacity="1" fill-rule="nonzero" d=" M37.44 -6.35 C38.64,-8.85 43.34,-13.55 51.64,-12.05 C43.64,-4.65 53.94,2.44 60.24,-3.35 C62.24,4.35 57.14,12.35 46.64,12.35 C43.94,12.35 31.44,7.74 37.44,-6.35z  M-59.06 -6.35 C-57.86,-8.85 -53.16,-13.55 -44.86,-12.05 C-52.86,-4.65 -42.56,2.44 -36.26,-3.35 C-34.26,4.35 -39.36,12.35 -49.86,12.35 C-52.56,12.35 -65.06,7.74 -59.06,-6.35z "/></g><g id="_R_G_L_0_G"><g clip-path="url(#_R_G_L_0_C_0)"><g id="_R_G_L_0_G_G_0_L_1_G" transform=" translate(84.392, 175.892) translate(65.608, -25.892)"><path id="_R_G_L_0_G_G_0_L_1_G_D_0_P_0" fill="#7126ff" fill-opacity="1" fill-rule="nonzero" d=" M-65.61 -5 C-48.56,-5 -34.72,8.84 -34.72,25.89 C-34.72,42.94 -48.56,56.78 -65.61,56.78 C-82.66,56.78 -96.5,42.94 -96.5,25.89 C-96.5,8.84 -82.66,-5 -65.61,-5z "/></g><g id="_R_G_L_0_G_G_0_L_0_G" transform=" translate(219.392, 175.892) translate(65.608, -25.892)"><path id="_R_G_L_0_G_G_0_L_0_G_D_0_P_0" fill="#7126ff" fill-opacity="1" fill-rule="nonzero" d=" M-65.61 -5 C-48.56,-5 -34.72,8.84 -34.72,25.89 C-34.72,42.94 -48.56,56.78 -65.61,56.78 C-82.66,56.78 -96.5,42.94 -96.5,25.89 C-96.5,8.84 -82.66,-5 -65.61,-5z "/></g></g></g></g><g id="time_group"/></svg>
