<svg xmlns="http://www.w3.org/2000/svg" xmlns:xlink="http://www.w3.org/1999/xlink" preserveAspectRatio="xMidYMid meet" width="300" height="300" viewBox="0 0 300 300" style="width:100%;height:100%"><defs><animateTransform repeatCount="1" dur="1.1261261s" begin="0s" xlink:href="#_R_G_L_5_G_N_5_T_0" fill="freeze" attributeName="transform" from="0.73 0.73" to="1.3800000000000001 1.3800000000000001" type="scale" additive="sum" keyTimes="0;0.1481482;0.7521852;1" values="0.73 0.73;0.73 0.73;1.3800000000000001 1.3800000000000001;1.3800000000000001 1.3800000000000001" keySplines="0.167 0 0.16 1;0.167 0 0.16 1;0 0 0 0" calcMode="spline"/><animate repeatCount="1" dur="1.1261261s" begin="0s" xlink:href="#_R_G_L_4_G_D_0_P_0" fill="freeze" attributeName="d" attributeType="XML" from=" M-86.39 25.15 C-86.39,25.15 -86.99,-28.55 -81.59,-43.05 C-81.59,-43.05 -81.69,-43.05 -81.69,-43.05 C-79.79,-50.65 -74.99,-51.65 -73.99,-51.65 C-73.99,-54.55 -74.99,-61.25 -66.19,-64.15 C-60.49,-66.05 -57.59,-68.95 -56.59,-71.85 C-52.79,-74.65 -50.89,-76.65 -44.19,-75.65 C17.51,-105.85 61.41,-58.45 61.41,-58.45 C70.11,-58.45 74.81,-52.65 77.81,-45.95 C77.81,-45.95 83.71,-33.35 84.41,-26.65 C86.61,-8.55 86.41,27.95 86.41,27.95 C86.41,69.15 50.91,79.85 39.41,82.65 C27.81,86.55 -22.09,86.55 -37.39,83.65 C-51.39,81.55 -86.39,70.15 -86.39,25.15z M36.51 70.25 C36.51,70.25 73.01,64.45 73.01,27.05 C73.01,27.05 74.51,-5.35 71.01,-10.45 C71.01,-10.45 69.64,-16.65 65.84,-18.65 C62.04,-20.45 52.14,-40.77 49.54,-42.67 C30.66,-41.73 24.84,-40.7 -2.16,-46.75 C-0.61,-37.22 -24.64,-26.44 -29.22,-28.79 C-29.72,-29.89 -24.89,-33.13 -26.89,-39.93 C-38.05,-22.41 -60.86,-21.23 -60.86,-21.23 C-62.76,-21.23 -56.67,-33.51 -57.22,-39.96 C-57.22,-39.96 -67.97,-27.69 -69.09,-21.85 C-72.59,-6.55 -72.99,25.15 -72.99,25.15 C-72.99,59.35 -48.99,68.15 -34.49,71.25 C-21.09,73.15 30.71,72.15 36.51,70.25z " to=" M-86.39 25.15 C-86.39,25.15 -86.99,-28.55 -81.59,-43.05 C-81.59,-43.05 -81.69,-43.05 -81.69,-43.05 C-79.79,-50.65 -74.99,-51.65 -73.99,-51.65 C-73.99,-54.55 -74.99,-61.25 -66.19,-64.15 C-60.49,-66.05 -57.59,-68.95 -56.59,-71.85 C-52.79,-74.65 -50.89,-76.65 -44.19,-75.65 C17.51,-105.85 61.41,-58.45 61.41,-58.45 C70.11,-58.45 74.81,-52.65 77.81,-45.95 C77.81,-45.95 83.71,-33.35 84.41,-26.65 C86.61,-8.55 86.41,27.95 86.41,27.95 C86.41,69.15 50.91,79.85 39.41,82.65 C27.81,86.55 -22.09,86.55 -37.39,83.65 C-51.39,81.55 -86.39,70.15 -86.39,25.15z M36.51 70.25 C36.51,70.25 73.01,64.45 73.01,27.05 C73.01,27.05 74.51,-5.35 71.01,-10.45 C71.01,-10.45 71.01,-14.25 67.21,-16.25 C63.41,-18.05 58.31,-37.35 55.71,-39.25 C49.31,-43.55 -5.09,-39.85 -9.69,-37.85 C-14.29,-36.05 -21.49,-21.85 -22.09,-22.85 C-22.59,-23.95 -24.89,-27.65 -26.89,-34.45 C-37.49,-35.35 -47.99,-15.25 -47.99,-15.25 C-49.89,-15.25 -53.79,-24.85 -53.79,-38.25 C-53.79,-38.25 -65.39,-38.45 -69.09,-21.85 C-72.59,-6.55 -72.99,25.15 -72.99,25.15 C-72.99,59.35 -48.99,68.15 -34.49,71.25 C-21.09,73.15 30.71,72.15 36.51,70.25z " keyTimes="0;0.0740741;0.8148148;1" values=" M-86.39 25.15 C-86.39,25.15 -86.99,-28.55 -81.59,-43.05 C-81.59,-43.05 -81.69,-43.05 -81.69,-43.05 C-79.79,-50.65 -74.99,-51.65 -73.99,-51.65 C-73.99,-54.55 -74.99,-61.25 -66.19,-64.15 C-60.49,-66.05 -57.59,-68.95 -56.59,-71.85 C-52.79,-74.65 -50.89,-76.65 -44.19,-75.65 C17.51,-105.85 61.41,-58.45 61.41,-58.45 C70.11,-58.45 74.81,-52.65 77.81,-45.95 C77.81,-45.95 83.71,-33.35 84.41,-26.65 C86.61,-8.55 86.41,27.95 86.41,27.95 C86.41,69.15 50.91,79.85 39.41,82.65 C27.81,86.55 -22.09,86.55 -37.39,83.65 C-51.39,81.55 -86.39,70.15 -86.39,25.15z M36.51 70.25 C36.51,70.25 73.01,64.45 73.01,27.05 C73.01,27.05 74.51,-5.35 71.01,-10.45 C71.01,-10.45 69.64,-16.65 65.84,-18.65 C62.04,-20.45 52.14,-40.77 49.54,-42.67 C30.66,-41.73 24.84,-40.7 -2.16,-46.75 C-0.61,-37.22 -24.64,-26.44 -29.22,-28.79 C-29.72,-29.89 -24.89,-33.13 -26.89,-39.93 C-38.05,-22.41 -60.86,-21.23 -60.86,-21.23 C-62.76,-21.23 -56.67,-33.51 -57.22,-39.96 C-57.22,-39.96 -67.97,-27.69 -69.09,-21.85 C-72.59,-6.55 -72.99,25.15 -72.99,25.15 C-72.99,59.35 -48.99,68.15 -34.49,71.25 C-21.09,73.15 30.71,72.15 36.51,70.25z ; M-86.39 25.15 C-86.39,25.15 -86.99,-28.55 -81.59,-43.05 C-81.59,-43.05 -81.69,-43.05 -81.69,-43.05 C-79.79,-50.65 -74.99,-51.65 -73.99,-51.65 C-73.99,-54.55 -74.99,-61.25 -66.19,-64.15 C-60.49,-66.05 -57.59,-68.95 -56.59,-71.85 C-52.79,-74.65 -50.89,-76.65 -44.19,-75.65 C17.51,-105.85 61.41,-58.45 61.41,-58.45 C70.11,-58.45 74.81,-52.65 77.81,-45.95 C77.81,-45.95 83.71,-33.35 84.41,-26.65 C86.61,-8.55 86.41,27.95 86.41,27.95 C86.41,69.15 50.91,79.85 39.41,82.65 C27.81,86.55 -22.09,86.55 -37.39,83.65 C-51.39,81.55 -86.39,70.15 -86.39,25.15z M36.51 70.25 C36.51,70.25 73.01,64.45 73.01,27.05 C73.01,27.05 74.51,-5.35 71.01,-10.45 C71.01,-10.45 69.64,-16.65 65.84,-18.65 C62.04,-20.45 52.14,-40.77 49.54,-42.67 C30.66,-41.73 24.84,-40.7 -2.16,-46.75 C-0.61,-37.22 -24.64,-26.44 -29.22,-28.79 C-29.72,-29.89 -24.89,-33.13 -26.89,-39.93 C-38.05,-22.41 -60.86,-21.23 -60.86,-21.23 C-62.76,-21.23 -56.67,-33.51 -57.22,-39.96 C-57.22,-39.96 -67.97,-27.69 -69.09,-21.85 C-72.59,-6.55 -72.99,25.15 -72.99,25.15 C-72.99,59.35 -48.99,68.15 -34.49,71.25 C-21.09,73.15 30.71,72.15 36.51,70.25z ; M-86.39 25.15 C-86.39,25.15 -86.99,-28.55 -81.59,-43.05 C-81.59,-43.05 -81.69,-43.05 -81.69,-43.05 C-79.79,-50.65 -74.99,-51.65 -73.99,-51.65 C-73.99,-54.55 -74.99,-61.25 -66.19,-64.15 C-60.49,-66.05 -57.59,-68.95 -56.59,-71.85 C-52.79,-74.65 -50.89,-76.65 -44.19,-75.65 C17.51,-105.85 61.41,-58.45 61.41,-58.45 C70.11,-58.45 74.81,-52.65 77.81,-45.95 C77.81,-45.95 83.71,-33.35 84.41,-26.65 C86.61,-8.55 86.41,27.95 86.41,27.95 C86.41,69.15 50.91,79.85 39.41,82.65 C27.81,86.55 -22.09,86.55 -37.39,83.65 C-51.39,81.55 -86.39,70.15 -86.39,25.15z M36.51 70.25 C36.51,70.25 73.01,64.45 73.01,27.05 C73.01,27.05 74.51,-5.35 71.01,-10.45 C71.01,-10.45 71.01,-14.25 67.21,-16.25 C63.41,-18.05 58.31,-37.35 55.71,-39.25 C49.31,-43.55 -5.09,-39.85 -9.69,-37.85 C-14.29,-36.05 -21.49,-21.85 -22.09,-22.85 C-22.59,-23.95 -24.89,-27.65 -26.89,-34.45 C-37.49,-35.35 -47.99,-15.25 -47.99,-15.25 C-49.89,-15.25 -53.79,-24.85 -53.79,-38.25 C-53.79,-38.25 -65.39,-38.45 -69.09,-21.85 C-72.59,-6.55 -72.99,25.15 -72.99,25.15 C-72.99,59.35 -48.99,68.15 -34.49,71.25 C-21.09,73.15 30.71,72.15 36.51,70.25z ; M-86.39 25.15 C-86.39,25.15 -86.99,-28.55 -81.59,-43.05 C-81.59,-43.05 -81.69,-43.05 -81.69,-43.05 C-79.79,-50.65 -74.99,-51.65 -73.99,-51.65 C-73.99,-54.55 -74.99,-61.25 -66.19,-64.15 C-60.49,-66.05 -57.59,-68.95 -56.59,-71.85 C-52.79,-74.65 -50.89,-76.65 -44.19,-75.65 C17.51,-105.85 61.41,-58.45 61.41,-58.45 C70.11,-58.45 74.81,-52.65 77.81,-45.95 C77.81,-45.95 83.71,-33.35 84.41,-26.65 C86.61,-8.55 86.41,27.95 86.41,27.95 C86.41,69.15 50.91,79.85 39.41,82.65 C27.81,86.55 -22.09,86.55 -37.39,83.65 C-51.39,81.55 -86.39,70.15 -86.39,25.15z M36.51 70.25 C36.51,70.25 73.01,64.45 73.01,27.05 C73.01,27.05 74.51,-5.35 71.01,-10.45 C71.01,-10.45 71.01,-14.25 67.21,-16.25 C63.41,-18.05 58.31,-37.35 55.71,-39.25 C49.31,-43.55 -5.09,-39.85 -9.69,-37.85 C-14.29,-36.05 -21.49,-21.85 -22.09,-22.85 C-22.59,-23.95 -24.89,-27.65 -26.89,-34.45 C-37.49,-35.35 -47.99,-15.25 -47.99,-15.25 C-49.89,-15.25 -53.79,-24.85 -53.79,-38.25 C-53.79,-38.25 -65.39,-38.45 -69.09,-21.85 C-72.59,-6.55 -72.99,25.15 -72.99,25.15 C-72.99,59.35 -48.99,68.15 -34.49,71.25 C-21.09,73.15 30.71,72.15 36.51,70.25z " keySplines="0.84 0 0.16 1;0.84 0 0.16 1;0 0 0 0" calcMode="spline"/><animateTransform repeatCount="1" dur="1.1261261s" begin="0s" xlink:href="#_R_G_L_4_G" fill="freeze" attributeName="transform" from="0.73 0.73" to="1.3800000000000001 1.3800000000000001" type="scale" additive="sum" keyTimes="0;0.1481482;0.7521852;1" values="0.73 0.73;0.73 0.73;1.3800000000000001 1.3800000000000001;1.3800000000000001 1.3800000000000001" keySplines="0.167 0 0.16 1;0.167 0 0.16 1;0 0 0 0" calcMode="spline"/><animateMotion repeatCount="1" dur="1.1261261s" begin="0s" xlink:href="#_R_G_L_3_G" fill="freeze" keyTimes="0;0.1627037;0.7265185;1" path="M0.09 53.38 C0.09,53.38 0.09,53.38 0.09,53.38 C0.09,53.38 0.09,18.87 0.09,18.87 C0.09,18.87 0.09,18.87 0.09,18.87 " keyPoints="0;0;1;1" keySplines="0.84 0 0.16 1;0.84 0 0.16 1;0 0 0 0" calcMode="spline"/><animateTransform repeatCount="1" dur="1.1261261s" begin="0s" xlink:href="#_R_G_L_3_G_N_5_T_0" fill="freeze" attributeName="transform" from="0.73 0.73" to="1.3800000000000001 1.3800000000000001" type="scale" additive="sum" keyTimes="0;0.1481482;0.7521852;1" values="0.73 0.73;0.73 0.73;1.3800000000000001 1.3800000000000001;1.3800000000000001 1.3800000000000001" keySplines="0.167 0 0.16 1;0.167 0 0.16 1;0 0 0 0" calcMode="spline"/><animateMotion repeatCount="1" dur="1.1261261s" begin="0s" xlink:href="#_R_G_L_2_G_N_4_T_0" fill="freeze" keyTimes="0;0.1627037;0.7265185;1" path="M0.09 53.38 C0.09,53.38 0.09,53.38 0.09,53.38 C0.09,53.38 0.09,18.87 0.09,18.87 C0.09,18.87 0.09,18.87 0.09,18.87 " keyPoints="0;0;1;1" keySplines="0.84 0 0.16 1;0.84 0 0.16 1;0 0 0 0" calcMode="spline"/><animateTransform repeatCount="1" dur="1.1261261s" begin="0s" xlink:href="#_R_G_L_2_G_N_4_N_5_T_0" fill="freeze" attributeName="transform" from="0.73 0.73" to="1.3800000000000001 1.3800000000000001" type="scale" additive="sum" keyTimes="0;0.1481482;0.7521852;1" values="0.73 0.73;0.73 0.73;1.3800000000000001 1.3800000000000001;1.3800000000000001 1.3800000000000001" keySplines="0.167 0 0.16 1;0.167 0 0.16 1;0 0 0 0" calcMode="spline"/><animateMotion repeatCount="1" dur="1.1261261s" begin="0s" xlink:href="#_R_G_L_1_G_N_4_T_0" fill="freeze" keyTimes="0;0.1627037;0.7265185;1" path="M0.09 53.38 C0.09,53.38 0.09,53.38 0.09,53.38 C0.09,53.38 0.09,18.87 0.09,18.87 C0.09,18.87 0.09,18.87 0.09,18.87 " keyPoints="0;0;1;1" keySplines="0.84 0 0.16 1;0.84 0 0.16 1;0 0 0 0" calcMode="spline"/><animateTransform repeatCount="1" dur="1.1261261s" begin="0s" xlink:href="#_R_G_L_1_G_N_4_N_5_T_0" fill="freeze" attributeName="transform" from="0.73 0.73" to="1.3800000000000001 1.3800000000000001" type="scale" additive="sum" keyTimes="0;0.1481482;0.7521852;1" values="0.73 0.73;0.73 0.73;1.3800000000000001 1.3800000000000001;1.3800000000000001 1.3800000000000001" keySplines="0.167 0 0.16 1;0.167 0 0.16 1;0 0 0 0" calcMode="spline"/><animate repeatCount="1" dur="1.1261261s" begin="0s" xlink:href="#_R_G_L_0_C_0_P_0" fill="freeze" attributeName="d" attributeType="XML" from="M285.82 131 C285.82,131 16,131 16,131 C16,131 16,218.5 16,218.5 C16,218.5 285.82,218.5 285.82,218.5 C285.82,218.5 285.82,131 285.82,131z " to="M285.82 122.5 C285.82,122.5 16,122.5 16,122.5 C16,122.5 16,144 16,144 C16,144 285.82,144 285.82,144 C285.82,144 285.82,122.5 285.82,122.5z " keyTimes="0;0.2595556;0.7777778;1" values="M285.82 131 C285.82,131 16,131 16,131 C16,131 16,218.5 16,218.5 C16,218.5 285.82,218.5 285.82,218.5 C285.82,218.5 285.82,131 285.82,131z ;M285.82 131 C285.82,131 16,131 16,131 C16,131 16,218.5 16,218.5 C16,218.5 285.82,218.5 285.82,218.5 C285.82,218.5 285.82,131 285.82,131z ;M285.82 122.5 C285.82,122.5 16,122.5 16,122.5 C16,122.5 16,144 16,144 C16,144 285.82,144 285.82,144 C285.82,144 285.82,122.5 285.82,122.5z ;M285.82 122.5 C285.82,122.5 16,122.5 16,122.5 C16,122.5 16,144 16,144 C16,144 285.82,144 285.82,144 C285.82,144 285.82,122.5 285.82,122.5z " keySplines="0.84 0 0.16 1;0.84 0 0.16 1;0 0 0 0" calcMode="spline"/><clipPath id="_R_G_L_0_C_0"><path id="_R_G_L_0_C_0_P_0" fill-rule="nonzero"/></clipPath><animateMotion repeatCount="1" dur="1.1261261s" begin="0s" xlink:href="#_R_G_L_0_G_N_4_T_0" fill="freeze" keyTimes="0;0.1627037;0.7265185;1" path="M0.09 53.38 C0.09,53.38 0.09,53.38 0.09,53.38 C0.09,53.38 0.09,18.87 0.09,18.87 C0.09,18.87 0.09,18.87 0.09,18.87 " keyPoints="0;0;1;1" keySplines="0.84 0 0.16 1;0.84 0 0.16 1;0 0 0 0" calcMode="spline"/><animateTransform repeatCount="1" dur="1.1261261s" begin="0s" xlink:href="#_R_G_L_0_G_N_4_N_5_T_0" fill="freeze" attributeName="transform" from="0.73 0.73" to="1.3800000000000001 1.3800000000000001" type="scale" additive="sum" keyTimes="0;0.1481482;0.7521852;1" values="0.73 0.73;0.73 0.73;1.3800000000000001 1.3800000000000001;1.3800000000000001 1.3800000000000001" keySplines="0.167 0 0.16 1;0.167 0 0.16 1;0 0 0 0" calcMode="spline"/><animate attributeType="XML" attributeName="opacity" dur="1s" from="0" to="1" xlink:href="#time_group"/></defs><g id="_R_G"><g id="_R_G_L_5_G_N_5_T_0" transform=" translate(151.37, 149.714)"><g id="_R_G_L_5_G" transform=" translate(-0.468, 54.203) translate(0, 0)"><path id="_R_G_L_5_G_D_0_P_0" fill="#1c004f" fill-opacity="1" fill-rule="nonzero" d=" M-13.22 -5.75 C-13.22,-5.75 -16.62,-6.65 -15.72,-2.85 C-11.92,2.95 -6.22,6.45 0.48,6.45 C7.28,6.45 13.88,1.65 15.88,-4.05 C15.88,-6.05 14.98,-7.05 12.98,-6.05 C12.08,-5.05 8.18,-1.25 0.48,-1.25 C-7.22,-1.25 -6.52,-1.95 -13.22,-5.75z "/></g></g><g id="_R_G_L_4_G" transform=" translate(151.37, 149.714)"><path id="_R_G_L_4_G_D_0_P_0" fill="#1c004f" fill-opacity="1" fill-rule="nonzero" d=" M-86.39 25.15 C-86.39,25.15 -86.99,-28.55 -81.59,-43.05 C-81.59,-43.05 -81.69,-43.05 -81.69,-43.05 C-79.79,-50.65 -74.99,-51.65 -73.99,-51.65 C-73.99,-54.55 -74.99,-61.25 -66.19,-64.15 C-60.49,-66.05 -57.59,-68.95 -56.59,-71.85 C-52.79,-74.65 -50.89,-76.65 -44.19,-75.65 C17.51,-105.85 61.41,-58.45 61.41,-58.45 C70.11,-58.45 74.81,-52.65 77.81,-45.95 C77.81,-45.95 83.71,-33.35 84.41,-26.65 C86.61,-8.55 86.41,27.95 86.41,27.95 C86.41,69.15 50.91,79.85 39.41,82.65 C27.81,86.55 -22.09,86.55 -37.39,83.65 C-51.39,81.55 -86.39,70.15 -86.39,25.15z  M36.51 70.25 C36.51,70.25 73.01,64.45 73.01,27.05 C73.01,27.05 74.51,-5.35 71.01,-10.45 C71.01,-10.45 69.64,-16.65 65.84,-18.65 C62.04,-20.45 52.14,-40.77 49.54,-42.67 C30.66,-41.73 24.84,-40.7 -2.16,-46.75 C-0.61,-37.22 -24.64,-26.44 -29.22,-28.79 C-29.72,-29.89 -24.89,-33.13 -26.89,-39.93 C-38.05,-22.41 -60.86,-21.23 -60.86,-21.23 C-62.76,-21.23 -56.67,-33.51 -57.22,-39.96 C-57.22,-39.96 -67.97,-27.69 -69.09,-21.85 C-72.59,-6.55 -72.99,25.15 -72.99,25.15 C-72.99,59.35 -48.99,68.15 -34.49,71.25 C-21.09,73.15 30.71,72.15 36.51,70.25z "/></g><g id="_R_G_L_3_G_N_5_T_0" transform=" translate(151.37, 149.714)"><g id="_R_G_L_3_G"><path id="_R_G_L_3_G_D_0_P_0" fill="#7126ff" fill-opacity="1" fill-rule="nonzero" d=" M63.32 -31.22 C50.82,-32.12 40.52,-28.52 31.62,-22.52 C11.42,-8.92 -5.28,-2.22 -31.78,-22.52 C-40.28,-29.12 -50.98,-32.12 -63.48,-32.12 C-102.16,-31.7 -92.74,31.7 -60.58,31.18 C-40.28,36.78 -20.28,16.78 -20.28,16.78 C-3.38,-1.92 10.92,7.28 18.12,16.78 C23.76,21.99 30.43,25.97 37.7,28.45 C44.97,30.93 52.67,31.86 60.32,31.18 C91.42,28.58 101.92,-28.92 63.32,-31.22z "/></g></g><g id="_R_G_L_2_G_N_4_N_5_T_0" transform=" translate(151.37, 149.714)"><g id="_R_G_L_2_G_N_4_T_0"><g id="_R_G_L_2_G" transform=" translate(-0.078, 0.481) translate(0, 0)"><path id="_R_G_L_2_G_D_0_P_0" fill="#ffffff" fill-opacity="1" fill-rule="nonzero" d=" M61.58 13.58 C57.98,17.18 53.09,19.2 48,19.2 C42.91,19.2 38.03,17.18 34.42,13.58 C30.82,9.98 28.8,5.09 28.8,0 C28.8,-5.09 30.82,-9.98 34.42,-13.58 C38.03,-17.18 42.91,-19.2 48,-19.2 C53.09,-19.2 57.98,-17.18 61.58,-13.58 C65.18,-9.98 67.2,-5.09 67.2,0 C67.2,5.09 65.18,9.98 61.58,13.58z  M-34.42 13.58 C-38.02,17.18 -42.91,19.2 -48,19.2 C-53.09,19.2 -57.97,17.18 -61.58,13.58 C-65.18,9.98 -67.2,5.09 -67.2,0 C-67.2,-5.09 -65.18,-9.98 -61.58,-13.58 C-57.97,-17.18 -53.09,-19.2 -48,-19.2 C-42.91,-19.2 -38.02,-17.18 -34.42,-13.58 C-30.82,-9.98 -28.8,-5.09 -28.8,0 C-28.8,5.09 -30.82,9.98 -34.42,13.58z "/></g></g></g><g id="_R_G_L_1_G_N_4_N_5_T_0" transform=" translate(151.37, 149.714)"><g id="_R_G_L_1_G_N_4_T_0"><g id="_R_G_L_1_G" transform=" translate(-0.32, 0.036) translate(0, 0)"><path id="_R_G_L_1_G_D_0_P_0" fill="#1c004f" fill-opacity="1" fill-rule="nonzero" d=" M37.44 -6.35 C38.64,-8.85 43.34,-13.55 51.64,-12.05 C43.64,-4.65 53.94,2.44 60.24,-3.35 C62.24,4.35 57.14,12.35 46.64,12.35 C43.94,12.35 31.44,7.74 37.44,-6.35z  M-59.06 -6.35 C-57.86,-8.85 -53.16,-13.55 -44.86,-12.05 C-52.86,-4.65 -42.56,2.44 -36.26,-3.35 C-34.26,4.35 -39.36,12.35 -49.86,12.35 C-52.56,12.35 -65.06,7.74 -59.06,-6.35z "/></g></g></g><g id="_R_G_L_0_G_N_4_N_5_T_0" transform=" translate(151.37, 149.714)"><g id="_R_G_L_0_G_N_4_T_0"><g id="_R_G_L_0_G" transform=" translate(-1.078, -18.661) scale(0.72464, 0.72464) translate(-150, -150)"><g clip-path="url(#_R_G_L_0_C_0)"><g id="_R_G_L_0_G_G_0_L_1_G" transform=" translate(83.397, 176.564) scale(0.22, 0.22) translate(341.375, -141.201)"><path id="_R_G_L_0_G_G_0_L_1_G_D_0_P_0" fill="#7126ff" fill-opacity="1" fill-rule="nonzero" d=" M-341.37 -8.8 C-258.59,-8.8 -191.37,58.42 -191.37,141.2 C-191.37,223.99 -258.59,291.2 -341.37,291.2 C-424.16,291.2 -491.37,223.99 -491.37,141.2 C-491.37,58.42 -424.16,-8.8 -341.37,-8.8z "/></g><g id="_R_G_L_0_G_G_0_L_0_G" transform=" translate(219.397, 176.564) scale(0.22, 0.22) translate(341.375, -141.201)"><path id="_R_G_L_0_G_G_0_L_0_G_D_0_P_0" fill="#7126ff" fill-opacity="1" fill-rule="nonzero" d=" M-341.37 -8.8 C-258.59,-8.8 -191.37,58.42 -191.37,141.2 C-191.37,223.99 -258.59,291.2 -341.37,291.2 C-424.16,291.2 -491.37,223.99 -491.37,141.2 C-491.37,58.42 -424.16,-8.8 -341.37,-8.8z "/></g></g></g></g></g></g><g id="time_group"/></svg>
